<svg xmlns="http://www.w3.org/2000/svg" viewBox="0 0 1600 900" preserveAspectRatio="none">
  <defs>
    <linearGradient id="bg" x1="0" y1="0" x2="0" y2="1">
      <stop offset="0%" stop-color="#1c171d"/>
      <stop offset="55%" stop-color="#0f0e14"/>
      <stop offset="100%" stop-color="#08080b"/>
    </linearGradient>
    <radialGradient id="glow" cx="50%" cy="46%" r="30%">
      <stop offset="0%" stop-color="#d9b36b" stop-opacity="0.55"/>
      <stop offset="45%" stop-color="#b77530" stop-opacity="0.18"/>
      <stop offset="100%" stop-color="#000000" stop-opacity="0"/>
    </radialGradient>
    <radialGradient id="mistLeft" cx="22%" cy="72%" r="34%">
      <stop offset="0%" stop-color="#7a5d52" stop-opacity="0.28"/>
      <stop offset="100%" stop-color="#000000" stop-opacity="0"/>
    </radialGradient>
    <radialGradient id="mistRight" cx="80%" cy="70%" r="30%">
      <stop offset="0%" stop-color="#7e352c" stop-opacity="0.26"/>
      <stop offset="100%" stop-color="#000000" stop-opacity="0"/>
    </radialGradient>
  </defs>
  <rect width="1600" height="900" fill="url(#bg)"/>
  <rect width="1600" height="900" fill="url(#glow)"/>
  <rect width="1600" height="900" fill="url(#mistLeft)"/>
  <rect width="1600" height="900" fill="url(#mistRight)"/>
  <g opacity="0.18" fill="#2d1f17">
    <path d="M210 900h170V250l-85-90-85 90z"/>
    <path d="M1220 900h180V210l-90-96-90 96z"/>
  </g>
  <g opacity="0.16" fill="#17141a">
    <path d="M500 900h580V430l-290-190-290 190z"/>
  </g>
  <path d="M660 900c20-110 40-200 140-340 100 140 120 230 140 340z" fill="#0d0b11" opacity="0.9"/>
  <g fill="none" stroke="#c6974f" stroke-opacity="0.16">
    <path d="M800 252v330" stroke-width="2"/>
    <path d="M710 340 800 252l90 88" stroke-width="2"/>
    <path d="M640 900c48-182 102-312 160-418 58 106 112 236 160 418" stroke-width="3"/>
  </g>
</svg>
